<?xml version="1.0" ?><svg id="Layer_1" style="enable-background:new 0 0 512 512;" version="1.1" viewBox="0 0 512 512" xml:space="preserve" xmlns="http://www.w3.org/2000/svg" xmlns:xlink="http://www.w3.org/1999/xlink"><style type="text/css">
	.st0{fill:none;stroke:#000000;stroke-width:2;stroke-linecap:round;stroke-linejoin:round;stroke-miterlimit:10;}
	.st1{stroke:#000000;stroke-width:2;stroke-linecap:round;stroke-linejoin:round;stroke-miterlimit:10;}
	.st2{fill:#FFFFFF;}
</style><g><g><path d="M513.34,468.21H-1.34c-4.45,0-8.04-3.6-8.04-8.04V51.83c0-4.44,3.6-8.04,8.04-8.04h514.68c4.45,0,8.04,3.6,8.04,8.04    v408.34C521.38,464.61,517.79,468.21,513.34,468.21z M6.7,452.13h498.6V59.87H6.7V452.13z"/></g><g><path d="M513.34,172.08H-1.34c-4.45,0-8.04-3.6-8.04-8.04c0-4.44,3.6-8.04,8.04-8.04h514.68c4.45,0,8.04,3.6,8.04,8.04    C521.38,168.48,517.79,172.08,513.34,172.08z"/></g><g><path d="M62.81,142.78c-19.22,0-34.85-15.63-34.85-34.85c0-19.21,15.63-34.85,34.85-34.85s34.85,15.63,34.85,34.85    C97.66,127.15,82.02,142.78,62.81,142.78z M62.81,89.17c-10.34,0-18.76,8.41-18.76,18.76s8.42,18.77,18.76,18.77    c10.35,0,18.77-8.42,18.77-18.77S73.16,89.17,62.81,89.17z"/></g><g><path d="M148.59,142.78c-19.22,0-34.85-15.63-34.85-34.85c0-19.21,15.63-34.85,34.85-34.85s34.85,15.63,34.85,34.85    C183.43,127.15,167.81,142.78,148.59,142.78z M148.59,89.17c-10.34,0-18.76,8.41-18.76,18.76s8.42,18.77,18.76,18.77    s18.76-8.42,18.76-18.77S158.93,89.17,148.59,89.17z"/></g><g><path d="M234.37,142.78c-19.22,0-34.85-15.63-34.85-34.85c0-19.21,15.64-34.85,34.85-34.85s34.85,15.63,34.85,34.85    C269.22,127.15,253.59,142.78,234.37,142.78z M234.37,89.17c-10.35,0-18.77,8.41-18.77,18.76s8.42,18.77,18.77,18.77    c10.34,0,18.76-8.42,18.76-18.77S244.71,89.17,234.37,89.17z"/></g><g><path d="M453.66,143.74H327.04c-11.03,0-20-8.98-20-20.01V92.28c0-11.03,8.98-20.01,20-20.01h126.62c11.03,0,20,8.98,20,20.01    v31.46C473.67,134.77,464.69,143.74,453.66,143.74z M327.04,88.36c-2.16,0-3.92,1.76-3.92,3.92v31.46c0,2.16,1.76,3.92,3.92,3.92    h126.62c2.16,0,3.92-1.76,3.92-3.92V92.28c0-2.16-1.76-3.92-3.92-3.92H327.04z"/></g><g><path d="M513.34,468.21H-1.34c-4.45,0-8.04-3.6-8.04-8.04V51.83c0-4.44,3.6-8.04,8.04-8.04h514.68c4.45,0,8.04,3.6,8.04,8.04    v408.34C521.38,464.61,517.79,468.21,513.34,468.21z M6.7,452.13h498.6V59.87H6.7V452.13z"/></g><g><path d="M62.81,142.78c-19.22,0-34.85-15.63-34.85-34.85c0-19.21,15.63-34.85,34.85-34.85s34.85,15.63,34.85,34.85    C97.66,127.15,82.02,142.78,62.81,142.78z M62.81,89.17c-10.34,0-18.76,8.41-18.76,18.76s8.42,18.77,18.76,18.77    c10.35,0,18.77-8.42,18.77-18.77S73.16,89.17,62.81,89.17z"/></g><g><path d="M148.59,142.78c-19.22,0-34.85-15.63-34.85-34.85c0-19.21,15.63-34.85,34.85-34.85s34.85,15.63,34.85,34.85    C183.43,127.15,167.81,142.78,148.59,142.78z M148.59,89.17c-10.34,0-18.76,8.41-18.76,18.76s8.42,18.77,18.76,18.77    s18.76-8.42,18.76-18.77S158.93,89.17,148.59,89.17z"/></g><g><path d="M234.37,142.78c-19.22,0-34.85-15.63-34.85-34.85c0-19.21,15.64-34.85,34.85-34.85s34.85,15.63,34.85,34.85    C269.22,127.15,253.59,142.78,234.37,142.78z M234.37,89.17c-10.35,0-18.77,8.41-18.77,18.76s8.42,18.77,18.77,18.77    c10.34,0,18.76-8.42,18.76-18.77S244.71,89.17,234.37,89.17z"/></g><g><path d="M453.66,143.74H327.04c-11.03,0-20-8.98-20-20.01V92.28c0-11.03,8.98-20.01,20-20.01h126.62c11.03,0,20,8.98,20,20.01    v31.46C473.67,134.77,464.69,143.74,453.66,143.74z M327.04,88.36c-2.16,0-3.92,1.76-3.92,3.92v31.46c0,2.16,1.76,3.92,3.92,3.92    h126.62c2.16,0,3.92-1.76,3.92-3.92V92.28c0-2.16-1.76-3.92-3.92-3.92H327.04z"/></g><g><path class="st1" d="M102.81,326.41l77.84-40.09v11.57l-65.58,32.88v0.34l65.58,32.87v11.58l-77.84-40.09V326.41z"/><path class="st1" d="M227.07,382.27l46.81-121.61h11.4l-46.97,121.61H227.07z"/><path class="st1" d="M409.21,335.64l-77.84,39.92v-11.58l66.09-32.87v-0.34l-66.09-32.88v-11.57l77.84,39.92V335.64z"/></g></g></svg>