<?xml version="1.0" ?><svg xmlns="http://www.w3.org/2000/svg" xmlns:xlink="http://www.w3.org/1999/xlink" version="1.1" id="Layer_1" viewBox="0 0 100 100" style="enable-background:new 0 0 100 100;" xml:space="preserve"><style type="text/css">
	.st0{fill:#D5FFA2;}
	.st1{fill:#333333;}
</style><g><path class="st0" d="M80.4,41.5V24.6c0-2.8-2.4-5.1-5.2-5.1h-20c-2.8,0-5.2,2.3-5.2,5.1v16.8c0,2.8,2.4,5.1,5.2,5.1h19.9   C78,46.6,80.4,44.3,80.4,41.5z"/><g><path class="st1" d="M73,28.5c-0.1-0.4-0.5-0.7-0.9-0.7L68,27.2l-1.9-3.7c-0.2-0.4-0.6-0.6-1-0.6c-0.4,0-0.8,0.3-1,0.6l-1.7,3.7    l-4.1,0.7c-0.4,0.1-0.7,0.4-0.9,0.7c-0.1,0.4,0,0.8,0.3,1.1l3,2.9l-0.6,4.1c-0.1,0.4,0.1,0.8,0.5,1c0.2,0.1,0.4,0.2,0.6,0.2    c0.2,0,0.4,0,0.5-0.1l3.6-2l3.6,1.9c0.4,0.2,0.8,0.2,1.2-0.1c0.3-0.2,0.5-0.7,0.4-1.1l-0.8-4.1l2.9-2.9C73,29.4,73.1,28.9,73,28.5    z M67.8,31.4c-0.3,0.3-0.4,0.6-0.3,1l0.5,2.5l-2.1-1.1c-0.3-0.2-0.7-0.2-1,0l-2.2,1.2l0.4-2.5c0-0.3-0.1-0.7-0.3-0.9l-1.8-1.8    l2.5-0.4c0.4-0.1,0.7-0.3,0.8-0.6l1-2.2l1.2,2.3c0.2,0.3,0.5,0.5,0.8,0.6l2.5,0.3L67.8,31.4z"/><path class="st1" d="M69.5,48v-3.9c0-1.9-1.5-3.4-3.4-3.4H23c-1.9,0-3.4,1.5-3.4,3.4v33c0,1.9,1.5,3.4,3.4,3.4h43.2    c1,0,1.9-0.4,2.6-1.1c0.6-0.6,0.9-1.5,0.8-2.3V48.9c0.1-0.1,0.1-0.3,0.1-0.5S69.6,48.1,69.5,48z M23,42.9h43.2    c0.7,0,1.2,0.5,1.2,1.2l0,3.3H21.8v-3.3C21.8,43.4,22.3,42.9,23,42.9z M67.1,77.9c-0.2,0.2-0.6,0.4-1,0.4H23    c-0.7,0-1.2-0.5-1.2-1.2V49.5h45.6l0,27.7C67.4,77.5,67.3,77.7,67.1,77.9z"/><circle class="st1" cx="25.1" cy="45.2" r="1.1"/><circle class="st1" cx="28" cy="45.2" r="1.1"/><circle class="st1" cx="30.9" cy="45.2" r="1.1"/><path class="st1" d="M26.9,54.6h5.4c0.6,0,1.1-0.5,1.1-1.1s-0.5-1.1-1.1-1.1h-5.4c-0.6,0-1.1,0.5-1.1,1.1S26.3,54.6,26.9,54.6z"/><path class="st1" d="M40.8,56.5H26.9c-0.6,0-1.1,0.5-1.1,1.1s0.5,1.1,1.1,1.1h13.9c0.6,0,1.1-0.5,1.1-1.1S41.4,56.5,40.8,56.5z"/><path class="st1" d="M26.9,62.8h6.9c0.6,0,1.1-0.5,1.1-1.1s-0.5-1.1-1.1-1.1h-6.9c-0.6,0-1.1,0.5-1.1,1.1S26.3,62.8,26.9,62.8z"/><path class="st1" d="M37.5,64.6H26.9c-0.6,0-1.1,0.5-1.1,1.1s0.5,1.1,1.1,1.1h10.6c0.6,0,1.1-0.5,1.1-1.1S38.1,64.6,37.5,64.6z"/><path class="st1" d="M48.3,63.3h5.4c0.6,0,1.1-0.5,1.1-1.1s-0.5-1.1-1.1-1.1h-5.4c-0.6,0-1.1,0.5-1.1,1.1S47.7,63.3,48.3,63.3z"/><path class="st1" d="M62.1,65.1H48.3c-0.6,0-1.1,0.5-1.1,1.1s0.5,1.1,1.1,1.1h13.8c0.6,0,1.1-0.5,1.1-1.1S62.7,65.1,62.1,65.1z"/><path class="st1" d="M48.3,71.3h6.8c0.6,0,1.1-0.5,1.1-1.1s-0.5-1.1-1.1-1.1h-6.8c-0.6,0-1.1,0.5-1.1,1.1S47.7,71.3,48.3,71.3z"/><path class="st1" d="M58.8,73.2H48.3c-0.6,0-1.1,0.5-1.1,1.1s0.5,1.1,1.1,1.1h10.5c0.6,0,1.1-0.5,1.1-1.1S59.4,73.2,58.8,73.2z"/></g></g></svg>